<svg width="150" height="150" viewBox="0 0 150 150" fill="none" xmlns="http://www.w3.org/2000/svg">
<path d="M112.5 115.641L100.359 103.5L93.75 110.109L112.5 128.859L145.312 96.0469L138.703 89.4375L112.5 115.641ZM70.3125 98.8125H79.6875V108.188H70.3125V98.8125ZM42.1875 98.8125H51.5625V108.188H42.1875V98.8125ZM98.4375 75.375H107.812V84.75H98.4375V75.375ZM70.3125 75.375H79.6875V84.75H70.3125V75.375ZM42.1875 75.375H51.5625V84.75H42.1875V75.375ZM98.4375 51.9375H107.812V61.3125H98.4375V51.9375ZM70.3125 51.9375H79.6875V61.3125H70.3125V51.9375ZM42.1875 51.9375H51.5625V61.3125H42.1875V51.9375ZM42.1875 23.8125H107.812V37.875H42.1875V23.8125Z" fill="#FCA311"/>
<path d="M79.6875 131.625H28.1484C25.6566 131.623 23.2675 130.632 21.5055 128.87C19.7435 127.108 18.7525 124.718 18.75 122.227V9.73125C18.7525 7.25058 19.739 4.87222 21.4931 3.11812C23.2472 1.36402 25.6256 0.377482 28.1062 0.375H121.894C124.374 0.377482 126.753 1.36402 128.507 3.11812C130.261 4.87222 131.248 7.25058 131.25 9.73125V75.375H121.875V9.75H28.125V122.25H79.6875V131.625Z" fill="#FCA311"/>
</svg>
