<svg width="40" height="40" viewBox="0 0 40 40" fill="none" xmlns="http://www.w3.org/2000/svg">
<g clip-path="url(#clip0_657_231)">
<path d="M31.896 11H31.996C32.7731 11.0002 33.5395 11.1815 34.2343 11.5296C34.9291 11.8777 35.5332 12.3829 35.9986 13.0052C36.4641 13.6275 36.7781 14.3497 36.9157 15.1146C37.0533 15.8794 37.0108 16.6658 36.7914 17.4113C36.5721 18.1568 36.182 18.8409 35.6521 19.4094C35.1222 19.9778 34.4671 20.4149 33.7388 20.686C33.0105 20.957 32.229 21.0546 31.4564 20.971C30.6839 20.8873 29.9414 20.6247 29.288 20.204L30.188 23.912C30.277 24.2797 30.2813 24.6629 30.2008 25.0325C30.1202 25.4022 29.9567 25.7487 29.7228 26.046C29.4888 26.3433 29.1904 26.5837 28.8501 26.7489C28.5097 26.9142 28.1363 27 27.758 27H26.232C25.8536 26.9998 25.4802 26.9137 25.1399 26.7482C24.7997 26.5827 24.5014 26.3421 24.2676 26.0446C24.0339 25.7471 23.8707 25.4004 23.7903 25.0306C23.71 24.6609 23.7147 24.2777 23.804 23.91L24.704 20.204C23.8613 20.749 22.8732 21.0258 21.87 20.998C21.6499 20.1508 21.1581 19.399 20.47 18.858C20.8201 17.9458 20.9998 16.9771 21 16C21 14.364 20.508 12.844 19.666 11.576C20.4152 11.1803 21.2529 10.9821 22.1 11C21.9657 10.3401 21.9657 9.65992 22.1 9.00001C22.3652 7.70045 23.1358 6.55947 24.2423 5.82808C25.3487 5.09669 26.7004 4.8348 28 5.10001C29.2996 5.36523 30.4405 6.13583 31.1719 7.2423C31.9033 8.34876 32.1652 9.70045 31.9 11H31.896ZM13 10C11.8418 10 10.7083 10.3353 9.73638 10.9653C8.76449 11.5954 7.99572 12.4933 7.52288 13.5506C7.05004 14.6079 6.89334 15.7795 7.0717 16.9239C7.25005 18.0684 7.75584 19.1367 8.528 20H8C7.46957 20 6.96086 20.2107 6.58579 20.5858C6.21071 20.9609 6 21.4696 6 22C6 22.5304 6.21071 23.0392 6.58579 23.4142C6.96086 23.7893 7.46957 24 8 24H9.04C8.296 27.596 6.334 29.672 5.24 30.586C4.548 31.166 4 32.058 4 33.098C4 34.7 5.3 36 6.902 36H19.1C20.7 36 22 34.7 22 33.098C22 32.058 21.452 31.166 20.76 30.586C19.666 29.672 17.704 27.596 16.96 24H18C18.5304 24 19.0391 23.7893 19.4142 23.4142C19.7893 23.0392 20 22.5304 20 22C20 21.4696 19.7893 20.9609 19.4142 20.5858C19.0391 20.2107 18.5304 20 18 20H17.472C18.2442 19.1367 18.7499 18.0684 18.9283 16.9239C19.1067 15.7795 18.95 14.6079 18.4771 13.5506C18.0043 12.4933 17.2355 11.5954 16.2636 10.9653C15.2917 10.3353 14.1582 10 13 10V10Z" fill="#181C44"/>
</g>
<defs>
<clipPath id="clip0_657_231">
<rect width="40" height="40" fill="white"/>
</clipPath>
</defs>
</svg>
