<svg width="40" height="40" viewBox="0 0 40 40" fill="none" xmlns="http://www.w3.org/2000/svg">
<path d="M20 5L3.33337 20H8.33337V33.3333H31.6667V20H36.6667L20 5ZM20 14.5833C20.9946 14.5833 21.9484 14.9784 22.6517 15.6817C23.355 16.3849 23.75 17.3388 23.75 18.3333C23.75 19.3279 23.355 20.2817 22.6517 20.985C21.9484 21.6882 20.9946 22.0833 20 22.0833C19.0055 22.0833 18.0517 21.6882 17.3484 20.985C16.6451 20.2817 16.25 19.3279 16.25 18.3333C16.25 17.3388 16.6451 16.3849 17.3484 15.6817C18.0517 14.9784 19.0055 14.5833 20 14.5833M20 25C22.5 25 27.5 26.25 27.5 28.75V30H12.5V28.75C12.5 26.25 17.5 25 20 25Z" fill="#181C44"/>
</svg>
