<svg width="150" height="150" viewBox="0 0 150 150" fill="none" xmlns="http://www.w3.org/2000/svg">
<path d="M131.25 62.5C110.934 63.6783 91.3957 70.7209 75 82.775C58.6044 70.7209 39.0658 63.6783 18.75 62.5V81C15.4293 81.0066 12.2471 82.3317 9.90303 84.6839C7.559 87.0362 6.24504 90.223 6.25001 93.5437V99.8187C6.25001 106.75 18.75 113.619 18.75 113.619V126.163C35.35 127.23 51.3592 132.734 65.1063 142.1C68.5774 144.509 71.8828 147.148 75 150C78.1172 147.148 81.4226 144.509 84.8938 142.1C98.6408 132.734 114.65 127.23 131.25 126.163V112.363C134.571 112.356 137.753 111.031 140.097 108.679C142.441 106.326 143.755 103.14 143.75 99.8187V93.5437C143.755 90.223 142.441 87.0362 140.097 84.6839C137.753 82.3317 134.571 81.0066 131.25 81V62.5ZM75 133.888C62.0374 124.388 47.0716 117.982 31.25 115.163V76.725C43.3755 79.1677 54.8879 84.0175 65.1063 90.9875C68.5774 93.3962 71.8828 96.0355 75 98.8875C78.1172 96.0355 81.4226 93.3962 84.8938 90.9875C95.1116 84.0153 106.624 79.1634 118.75 76.7187V115.163C102.928 117.982 87.9626 124.388 75 133.888ZM68.75 50H81.25V56.25H68.75V50ZM68.75 25H81.25V31.25H68.75V25Z" fill="#FCA311"/>
<path d="M68.7501 62.4999H81.2501V68.7499H68.7501V62.4999ZM56.2501 31.2499C57.9077 31.2499 59.4974 30.5914 60.6695 29.4193C61.8416 28.2472 62.5001 26.6575 62.5001 24.9999C62.5059 24.1857 62.3498 23.3785 62.0409 22.6252C61.732 21.8719 61.2765 21.1874 60.7008 20.6117C60.125 20.036 59.4406 19.5804 58.6873 19.2716C57.934 18.9627 57.1268 18.8066 56.3126 18.8124C55.4959 18.8083 54.6864 18.9651 53.9304 19.2738C53.1743 19.5826 52.4865 20.0372 51.9061 20.6117C50.734 21.7721 50.0709 23.3506 50.0626 24.9999C50.0543 26.6492 50.7015 28.2343 51.8619 29.4064C53.0223 30.5785 54.6008 31.2416 56.2501 31.2499Z" fill="#FCA311"/>
<path d="M93.75 31.25C97.2018 31.25 100 28.4518 100 25C100 21.5482 97.2018 18.75 93.75 18.75C90.2982 18.75 87.5 21.5482 87.5 25C87.5 28.4518 90.2982 31.25 93.75 31.25Z" fill="#FCA311"/>
<path d="M100 50H50C45.0287 49.995 40.2625 48.018 36.7472 44.5028C33.232 40.9875 31.255 36.2213 31.25 31.25V18.75C31.255 13.7787 33.232 9.01246 36.7472 5.49723C40.2625 1.982 45.0287 0.00496384 50 0L100 0C104.971 0.00496384 109.738 1.982 113.253 5.49723C116.768 9.01246 118.745 13.7787 118.75 18.75V31.25C118.745 36.2213 116.768 40.9875 113.253 44.5028C109.738 48.018 104.971 49.995 100 50ZM50 12.5C48.3429 12.5017 46.7542 13.1607 45.5824 14.3324C44.4107 15.5042 43.7517 17.0929 43.75 18.75V31.25C43.7517 32.9071 44.4107 34.4958 45.5824 35.6676C46.7542 36.8393 48.3429 37.4983 50 37.5H100C101.657 37.4983 103.246 36.8393 104.418 35.6676C105.589 34.4958 106.248 32.9071 106.25 31.25V18.75C106.248 17.0929 105.589 15.5042 104.418 14.3324C103.246 13.1607 101.657 12.5017 100 12.5H50Z" fill="#FCA311"/>
</svg>
