<svg width="40" height="40" viewBox="0 0 40 40" fill="none" xmlns="http://www.w3.org/2000/svg">
<g clip-path="url(#clip0_657_233)">
<path d="M36.25 32.5C35.4058 32.5034 34.5879 32.7944 33.9313 33.325L31.25 31.7788V29.7713C32.084 29.4764 32.787 28.8962 33.2345 28.1332C33.6821 27.3701 33.8456 26.4735 33.696 25.6016C33.5464 24.7297 33.0934 23.9388 32.4171 23.3686C31.7407 22.7984 30.8846 22.4857 30 22.4857C29.1154 22.4857 28.2593 22.7984 27.5829 23.3686C26.9066 23.9388 26.4536 24.7297 26.304 25.6016C26.1544 26.4735 26.3179 27.3701 26.7655 28.1332C27.2131 28.8962 27.916 29.4764 28.75 29.7713V31.7788L26.0688 33.3275C25.4125 32.796 24.5946 32.5041 23.75 32.5C22.9665 32.4947 22.2007 32.7333 21.5589 33.1828C20.9171 33.6323 20.4311 34.2704 20.1682 35.0085C19.9054 35.7467 19.8787 36.5483 20.0919 37.3023C20.3052 38.0562 20.7478 38.7252 21.3583 39.2163C21.9688 39.7074 22.717 39.9964 23.4992 40.0432C24.2813 40.0899 25.0586 39.8922 25.7233 39.4773C26.388 39.0624 26.9071 38.451 27.2087 37.7278C27.5103 37.0046 27.5793 36.2055 27.4063 35.4413L30 33.9425L32.5938 35.44C32.4265 36.1978 32.4987 36.9888 32.8003 37.7038C33.1018 38.4188 33.6179 39.0226 34.2773 39.4318C34.9367 39.8409 35.7069 40.0353 36.4814 39.988C37.256 39.9408 37.9968 39.6542 38.6016 39.168C39.2063 38.6817 39.6452 38.0196 39.8576 37.2733C40.07 36.5269 40.0455 35.733 39.7874 35.0011C39.5293 34.2693 39.0504 33.6356 38.4167 33.1876C37.7831 32.7396 37.026 32.4993 36.25 32.5ZM23.75 37.5C23.5028 37.5 23.2611 37.4267 23.0555 37.2893C22.85 37.152 22.6898 36.9568 22.5952 36.7284C22.5006 36.4999 22.4758 36.2486 22.524 36.0061C22.5723 35.7637 22.6913 35.5409 22.8661 35.3661C23.0409 35.1913 23.2637 35.0723 23.5061 35.024C23.7486 34.9758 24 35.0005 24.2284 35.0952C24.4568 35.1898 24.652 35.35 24.7893 35.5555C24.9267 35.7611 25 36.0028 25 36.25C25 36.5815 24.8683 36.8995 24.6339 37.1339C24.3995 37.3683 24.0815 37.5 23.75 37.5ZM30 25C30.2472 25 30.4889 25.0733 30.6945 25.2107C30.9 25.348 31.0603 25.5432 31.1549 25.7716C31.2495 26.0001 31.2742 26.2514 31.226 26.4939C31.1778 26.7363 31.0587 26.9591 30.8839 27.1339C30.7091 27.3087 30.4864 27.4278 30.2439 27.476C30.0014 27.5242 29.7501 27.4995 29.5217 27.4049C29.2932 27.3102 29.098 27.15 28.9607 26.9445C28.8233 26.7389 28.75 26.4972 28.75 26.25C28.75 25.9185 28.8817 25.6005 29.1161 25.3661C29.3505 25.1317 29.6685 25 30 25ZM36.25 37.5C36.0028 37.5 35.7611 37.4267 35.5555 37.2893C35.35 37.152 35.1898 36.9568 35.0952 36.7284C35.0006 36.4999 34.9758 36.2486 35.024 36.0061C35.0723 35.7637 35.1913 35.5409 35.3661 35.3661C35.5409 35.1913 35.7637 35.0723 36.0061 35.024C36.2486 34.9758 36.5 35.0005 36.7284 35.0952C36.9568 35.1898 37.152 35.35 37.2893 35.5555C37.4267 35.7611 37.5 36.0028 37.5 36.25C37.5 36.5815 37.3683 36.8995 37.1339 37.1339C36.8995 37.3683 36.5815 37.5 36.25 37.5Z" fill="#181C44"/>
<path d="M8.75 27.5C10.1307 27.5 11.25 26.3807 11.25 25C11.25 23.6193 10.1307 22.5 8.75 22.5C7.36929 22.5 6.25 23.6193 6.25 25C6.25 26.3807 7.36929 27.5 8.75 27.5Z" fill="#181C44"/>
<path d="M17.5 25C16.5111 25 15.5444 24.7068 14.7222 24.1574C13.8999 23.6079 13.259 22.827 12.8806 21.9134C12.5022 20.9998 12.4031 19.9945 12.5961 19.0246C12.789 18.0546 13.2652 17.1637 13.9645 16.4645C14.6637 15.7652 15.5546 15.289 16.5246 15.0961C17.4945 14.9031 18.4998 15.0022 19.4134 15.3806C20.3271 15.759 21.1079 16.3999 21.6574 17.2222C22.2068 18.0444 22.5 19.0111 22.5 20C22.496 21.3249 21.968 22.5943 21.0312 23.5312C20.0943 24.468 18.8249 24.996 17.5 25ZM17.5 17.5C17.0055 17.5 16.5222 17.6466 16.1111 17.9213C15.7 18.196 15.3795 18.5865 15.1903 19.0433C15.0011 19.5001 14.9516 20.0028 15.048 20.4877C15.1445 20.9727 15.3826 21.4181 15.7322 21.7678C16.0819 22.1174 16.5273 22.3555 17.0123 22.452C17.4972 22.5484 17.9999 22.4989 18.4567 22.3097C18.9135 22.1205 19.304 21.8001 19.5787 21.3889C19.8534 20.9778 20 20.4945 20 20C19.998 19.3376 19.734 18.7028 19.2656 18.2344C18.7972 17.766 18.1624 17.502 17.5 17.5Z" fill="#181C44"/>
<path d="M26.25 17.5C27.6307 17.5 28.75 16.3807 28.75 15C28.75 13.6193 27.6307 12.5 26.25 12.5C24.8693 12.5 23.75 13.6193 23.75 15C23.75 16.3807 24.8693 17.5 26.25 17.5Z" fill="#181C44"/>
<path d="M16.275 35.3388L3.75 28.0338V11.9675L17.5 3.9475L31.87 12.33L33.13 10.17L18.13 1.42C17.9388 1.30843 17.7214 1.24963 17.5 1.24963C17.2786 1.24963 17.0612 1.30843 16.87 1.42L1.87 10.17C1.68128 10.2801 1.52472 10.4378 1.41593 10.6273C1.30715 10.8168 1.24994 11.0315 1.25 11.25V28.75C1.24994 28.9685 1.30715 29.1832 1.41593 29.3727C1.52472 29.5622 1.68128 29.7199 1.87 29.83L15.0162 37.5L16.275 35.3388Z" fill="#181C44"/>
</g>
<defs>
<clipPath id="clip0_657_233">
<rect width="40" height="40" fill="white"/>
</clipPath>
</defs>
</svg>
