<svg width="150" height="150" viewBox="0 0 150 150" fill="none" xmlns="http://www.w3.org/2000/svg">
<path d="M112.5 81.75H37.5L12.5 106.75V6.75C12.5 5.0924 13.1585 3.50268 14.3306 2.33058C15.5027 1.15848 17.0924 0.5 18.75 0.5H112.5C114.158 0.5 115.747 1.15848 116.919 2.33058C118.092 3.50268 118.75 5.0924 118.75 6.75V75.5C118.75 77.1576 118.092 78.7473 116.919 79.9194C115.747 81.0915 114.158 81.75 112.5 81.75ZM143.75 44.25V131.75L118.75 106.75H50C48.3424 106.75 46.7527 106.092 45.5806 104.919C44.4085 103.747 43.75 102.158 43.75 100.5V94.25H131.25V38H137.5C139.158 38 140.747 38.6585 141.919 39.8306C143.092 41.0027 143.75 42.5924 143.75 44.25ZM51.1875 13C45.75 13 41.375 14.25 38 16.6875C34.75 19.25 33.125 22.8125 33.1875 27.75L33.25 27.9375H45.3125C45.375 26.0625 45.9375 24.625 47.0625 23.625C48.2198 22.6653 49.6844 22.1549 51.1875 22.1875C53.125 22.1875 54.75 22.8125 55.875 23.9375C57 25.125 57.5 26.75 57.5 28.625C57.5 30.625 57.0625 32.3125 56.0625 33.75C55.1875 35.1875 53.875 36.4375 52.25 37.4375C49.0625 39.5625 46.875 41.4375 45.6875 43.125C44.4375 44.75 43.75 47.375 43.75 50.5H56.25C56.25 48.5625 56.5 47 57.0625 45.875C57.625 44.75 58.6875 43.625 60.25 42.625C63.0625 41.125 65.375 39.3125 67.1875 36.8125C69 34.3125 69.9375 31.75 69.9375 28.625C69.9375 23.875 68.25 20.0625 64.875 17.25C61.5625 14.4375 57 13 51.1875 13ZM43.75 56.75V69.25H56.25V56.75H43.75ZM81.25 69.25H93.75V56.75H81.25V69.25ZM81.25 13V50.5H93.75V13H81.25Z" fill="#FCA311"/>
</svg>
