<svg width="422" height="26" viewBox="0 0 422 26" fill="none" xmlns="http://www.w3.org/2000/svg">
<path d="M4.96654 1.56504C2.20517 1.58326 -0.0185914 3.83655 -0.000379562 6.59791C0.0178323 9.35927 2.27112 11.583 5.03249 11.5648L4.96654 1.56504ZM242.317 9.99989C245.079 9.98168 247.302 7.72839 247.284 4.96702C247.266 2.20566 245.013 -0.0181031 242.251 0.000108719L242.317 9.99989ZM191.703 16C188.942 16.0126 186.714 18.2613 186.726 21.0227C186.739 23.7841 188.987 26.0125 191.749 25.9999L191.703 16ZM417.023 24.9732C419.784 24.9606 422.012 22.7119 422 19.9505C421.987 17.1891 419.739 14.9607 416.977 14.9733L417.023 24.9732ZM243.804 10.782C246.457 10.0168 247.988 7.24555 247.223 4.59226C246.457 1.93898 243.686 0.408378 241.033 1.17358L243.804 10.782ZM190.972 15.6109C188.319 16.3761 186.788 19.1473 187.554 21.8006C188.319 24.4539 191.09 25.9845 193.743 25.2193L190.972 15.6109ZM5.03249 11.5648L242.317 9.99989L242.251 0.000108719L4.96654 1.56504L5.03249 11.5648ZM191.749 25.9999L417.023 24.9732L416.977 14.9733L191.703 16L191.749 25.9999ZM241.033 1.17358L190.972 15.6109L193.743 25.2193L243.804 10.782L241.033 1.17358Z" fill="#FCA311"/>
</svg>
